<svg xmlns="http://www.w3.org/2000/svg" xmlns:xlink="http://www.w3.org/1999/xlink" width="500" zoomAndPan="magnify" viewBox="0 0 375 374.999991" height="500" preserveAspectRatio="xMidYMid meet" version="1.0"><path fill="#26285d" d="M 25.359375 305.738281 C 25.359375 305.738281 21.242188 308.414062 19.121094 313.90625 C 13.554688 328.277344 32.648438 322.667969 38.734375 317.4375 C 41.21875 315.300781 42.296875 301.359375 36.542969 300.015625 C 34.300781 299.492188 25.359375 305.738281 25.359375 305.738281 " fill-opacity="1" fill-rule="nonzero"/><path fill="#f68c82" d="M 18.683594 125.210938 C 18.683594 125.210938 22.410156 138.734375 32.066406 153.273438 C 32.066406 153.273438 37.042969 162.609375 29.574219 161.09375 C 22.097656 159.578125 6 140.179688 4.296875 132.847656 C 2.585938 125.511719 9.8125 108.855469 18.683594 125.210938 " fill-opacity="1" fill-rule="nonzero"/><path fill="#26285d" d="M 56.53125 304.085938 C 56.53125 304.085938 55.125 304.667969 55.074219 305.113281 C 55.035156 305.570312 53.917969 311.523438 54.183594 312.597656 C 54.457031 313.671875 70.921875 317.339844 70.921875 317.339844 C 70.921875 317.339844 82.707031 319.046875 88.820312 316.078125 C 90.214844 315.402344 89.398438 314.230469 88.976562 313.828125 C 80.699219 305.972656 66.316406 301.84375 66.316406 301.84375 L 56.53125 304.085938 " fill-opacity="1" fill-rule="nonzero"/><path fill="#f68c82" d="M 35.917969 298.421875 C 35.917969 298.421875 35.035156 307.652344 35.074219 307.828125 C 35.410156 309.25 39.378906 309.625 40.640625 308.644531 L 43.585938 299.90625 L 35.917969 298.421875 " fill-opacity="1" fill-rule="nonzero"/><path fill="#f68c82" d="M 56.667969 296.398438 C 56.667969 296.398438 55.867188 305.574219 55.917969 305.8125 C 56.230469 307.246094 60.023438 307.78125 61.273438 306.789062 L 63.652344 297.671875 L 56.667969 296.398438 " fill-opacity="1" fill-rule="nonzero"/><path fill="#26285d" d="M 91 156.871094 C 89.921875 179.566406 87.867188 212.980469 84.507812 232.164062 C 84.507812 232.164062 63.304688 226.398438 62.113281 219.09375 C 61.34375 214.347656 64.746094 180.183594 67.214844 156.871094 L 91 156.871094 " fill-opacity="1" fill-rule="nonzero"/><path fill="#2e3192" d="M 83.476562 156.871094 C 77.085938 170.761719 68.152344 185.429688 68.152344 185.730469 C 56.148438 240.996094 45.761719 298.347656 41.9375 309.890625 C 40.351562 314.695312 22.761719 307.292969 22.761719 307.292969 C 24.476562 267.339844 30.039062 267.078125 40.597656 156.871094 L 83.476562 156.871094 " fill-opacity="1" fill-rule="nonzero"/><path fill="#f7981a" d="M 55.300781 176.4375 C 55.300781 176.4375 51.5 213.578125 46.835938 211.246094 C 46.121094 210.886719 25.222656 210.175781 24.882812 209.578125 C 24.542969 208.984375 29.996094 181.800781 32.15625 178.582031 L 55.300781 176.4375 " fill-opacity="1" fill-rule="nonzero"/><path fill="#f7981a" d="M 51.050781 169.21875 C 51.050781 169.933594 45.085938 218.574219 45.085938 218.574219 L 40.078125 218.574219 L 46.875 169.21875 L 51.050781 169.21875 " fill-opacity="1" fill-rule="nonzero"/><path fill="#ffffff" d="M 51.550781 184.902344 L 48.105469 197.980469 L 29.429688 193.894531 L 34.058594 180.089844 L 51.550781 184.902344 " fill-opacity="1" fill-rule="nonzero"/><path fill="#f7981a" d="M 75.066406 164.871094 C 75.066406 164.871094 78.578125 199.148438 82.878906 196.996094 C 83.539062 196.664062 102.820312 196.003906 103.132812 195.453125 C 103.449219 194.902344 98.414062 169.820312 96.425781 166.847656 L 75.066406 164.871094 " fill-opacity="1" fill-rule="nonzero"/><path fill="#f7981a" d="M 77.53125 180.976562 C 77.53125 180.976562 81.039062 215.257812 85.339844 213.105469 C 86 212.777344 102.324219 211.273438 102.644531 210.722656 C 102.957031 210.171875 98.125 186.113281 96.125 183.140625 L 77.53125 180.976562 " fill-opacity="1" fill-rule="nonzero"/><path fill="#26285d" d="M 67.460938 215.707031 C 67.460938 215.707031 63.085938 214.636719 62.25 216.996094 C 61.410156 219.34375 55.847656 290.839844 54.648438 307.746094 C 54.648438 307.746094 71.699219 310.253906 73.980469 307.292969 C 77.480469 302.753906 84.507812 232.164062 84.507812 232.164062 L 67.460938 215.707031 " fill-opacity="1" fill-rule="nonzero"/><path fill="#e5e4e4" d="M 50.910156 81.59375 C 50.910156 81.59375 33.476562 82.917969 5.679688 120.894531 C 5.679688 120.894531 2.886719 124.847656 14.789062 127.996094 C 22.035156 129.914062 31 119.328125 51.144531 101.1875 C 51.144531 101.1875 56.515625 80.535156 50.910156 81.59375 " fill-opacity="1" fill-rule="nonzero"/><path fill="#2e3192" d="M 80.386719 48.835938 C 80.277344 51.859375 79.808594 55.082031 78.519531 57.296875 L 75.898438 48.0625 C 77.375 48.382812 78.875 48.636719 80.386719 48.835938 " fill-opacity="1" fill-rule="nonzero"/><path fill="#e5e4e4" d="M 38.933594 86.992188 C 38.933594 86.992188 61.457031 77.996094 65.046875 77.710938 L 89.109375 86.003906 C 89.109375 86.003906 91.957031 147.761719 91.679688 153.273438 C 85.023438 153.828125 70.914062 157.886719 64.167969 158.027344 C 60.691406 158.097656 53.640625 157.414062 46.984375 155.28125 C 44.835938 147.59375 36.742188 100.015625 38.933594 86.992188 " fill-opacity="1" fill-rule="nonzero"/><path fill="#bdbcbc" d="M 87.449219 84.066406 C 87.449219 84.066406 103.921875 91.445312 116.757812 136.726562 C 116.757812 136.726562 104.042969 143.035156 100.003906 136.726562 C 95.960938 130.410156 91.507812 123.429688 78.941406 99.410156 C 78.941406 99.410156 82.5625 81.121094 87.449219 84.066406 " fill-opacity="1" fill-rule="nonzero"/><path fill="#f7981a" d="M 89.109375 154.007812 L 41.695312 151.242188 C 41.695312 151.242188 43.496094 161.617188 43.839844 161.773438 C 44.183594 161.929688 64.21875 166.378906 64.21875 166.378906 L 84.578125 163.003906 L 89.109375 154.007812 " fill-opacity="1" fill-rule="nonzero"/><path fill="#fab43d" d="M 75.898438 80.574219 L 88.414062 83.742188 L 96.90625 187.109375 L 69.714844 192.308594 L 75.898438 80.574219 " fill-opacity="1" fill-rule="nonzero"/><path fill="#fab43d" d="M 52.726562 80.074219 L 37.449219 86.878906 L 31.09375 187.109375 L 58.289062 192.308594 L 52.726562 80.074219 " fill-opacity="1" fill-rule="nonzero"/><path fill="#ffffff" d="M 93.78125 134.382812 L 94.464844 145.109375 L 73.449219 145.109375 L 74.25 134.382812 L 93.78125 134.382812 " fill-opacity="1" fill-rule="nonzero"/><path fill="#ffffff" d="M 71.964844 170.144531 L 72.992188 156.3125 L 95.558594 156.3125 L 96.433594 170.144531 L 71.964844 170.144531 " fill-opacity="1" fill-rule="nonzero"/><path fill="#ffffff" d="M 53.03125 134.382812 L 53.832031 145.109375 L 32.816406 145.109375 L 33.496094 134.382812 L 53.03125 134.382812 " fill-opacity="1" fill-rule="nonzero"/><path fill="#ffffff" d="M 31.09375 170.144531 L 31.964844 156.3125 L 54.523438 156.3125 L 55.5625 170.144531 L 31.09375 170.144531 " fill-opacity="1" fill-rule="nonzero"/><path fill="#e66f64" d="M 56.949219 69.144531 C 56.78125 68.699219 71.226562 69.652344 71.226562 69.652344 C 71.226562 69.652344 70.203125 78.855469 71.464844 81.714844 L 64.207031 94.082031 C 64.207031 94.082031 58.488281 83.59375 57.25 81.257812 C 57.25 81.257812 59.328125 75.457031 56.949219 69.144531 " fill-opacity="1" fill-rule="nonzero"/><path fill="#f68c82" d="M 74.65625 71.964844 C 74.65625 71.964844 68.71875 81.082031 58.664062 74.359375 C 51.035156 69.257812 44.433594 43.125 48.589844 38.386719 C 52.75 33.636719 72.046875 32.707031 76.859375 42.449219 C 80.609375 50.0625 78.9375 65.425781 74.65625 71.964844 " fill-opacity="1" fill-rule="nonzero"/><path fill="#2e3192" d="M 72.914062 50.445312 C 72.914062 50.445312 67.859375 57.199219 55.5 58.234375 C 55.5 58.234375 62.300781 49.078125 64.207031 48.210938 C 66.109375 47.347656 72.914062 50.445312 72.914062 50.445312 " fill-opacity="1" fill-rule="nonzero"/><path fill="#2e3192" d="M 78.144531 47.074219 C 78.144531 47.074219 76.625 55.371094 66.019531 61.796875 C 66.019531 61.796875 68.035156 50.570312 69.355469 48.945312 C 70.671875 47.324219 78.144531 47.074219 78.144531 47.074219 " fill-opacity="1" fill-rule="nonzero"/><path fill="#2e3192" d="M 57.808594 45.773438 C 57.808594 45.773438 58.492188 35.601562 51.746094 37.269531 C 51.746094 37.269531 40.625 48.515625 47.851562 60.921875 C 51.800781 67.695312 57.976562 77.710938 57.976562 77.710938 L 57.8125 72.785156 C 57.8125 72.785156 51.980469 50.113281 57.808594 45.773438 " fill-opacity="1" fill-rule="nonzero"/><path fill="#f68c82" d="M 57.878906 63.335938 C 58.953125 65.667969 58.570312 68.125 57.03125 68.835938 C 55.488281 69.542969 53.371094 68.234375 52.296875 65.910156 C 51.230469 63.582031 51.613281 61.121094 53.152344 60.414062 C 54.695312 59.707031 56.8125 61.015625 57.878906 63.335938 " fill-opacity="1" fill-rule="nonzero"/><path fill="#f68c82" d="M 33.914062 156.863281 C 33.914062 156.863281 35.800781 159.078125 39.671875 154.875 C 43.546875 150.679688 41.972656 149.8125 30.648438 154.175781 L 33.914062 156.863281 " fill-opacity="1" fill-rule="nonzero"/><path fill="#f68c82" d="M 34.230469 152.804688 C 34.230469 152.804688 35.703125 151.96875 39.671875 154.875 C 43.648438 157.789062 44.917969 160.582031 46.332031 163.171875 C 47.390625 165.125 45.878906 164.4375 45.753906 164.484375 C 45.683594 164.507812 46.042969 164.582031 45.707031 165.054688 C 45.496094 165.347656 44.675781 165.777344 44.175781 165.855469 C 43.859375 165.902344 42.753906 166.042969 42.273438 166.113281 C 39.964844 166.4375 35.65625 166.519531 28.183594 160.648438 C 28.183594 160.648438 27.640625 153.238281 34.230469 152.804688 " fill-opacity="1" fill-rule="nonzero"/><path fill="#fab43d" d="M 74.570312 52.53125 C 74.570312 52.53125 55.894531 53.765625 45.863281 48.304688 C 45.863281 48.304688 44.835938 31.0625 63.605469 32.304688 C 63.605469 32.304688 78.484375 33.359375 78.378906 47.707031 C 78.378906 47.707031 85.785156 49.269531 86.164062 50.457031 C 86.539062 51.644531 80.695312 52.660156 74.570312 52.53125 " fill-opacity="1" fill-rule="nonzero"/><path fill="#f7981a" d="M 76.792969 48.089844 C 76.792969 48.089844 74.214844 49.972656 66.441406 50.691406 C 66.441406 50.691406 65.085938 32.664062 54.808594 33.390625 C 54.808594 33.390625 56.234375 31.933594 58.207031 31.695312 C 59.335938 31.558594 65.941406 30.652344 69.101562 33.015625 C 72.265625 35.378906 75.496094 40.875 76.792969 48.089844 " fill-opacity="1" fill-rule="nonzero"/><path fill="#e5e4e4" d="M 22.148438 123.566406 C 22.148438 123.566406 24.523438 126.507812 23.832031 128.335938 C 23.132812 130.164062 22.492188 134.53125 10.175781 133.339844 C -2.140625 132.148438 -0.945312 122.851562 6.917969 120.066406 C 14.785156 117.285156 22.148438 123.566406 22.148438 123.566406 " fill-opacity="1" fill-rule="nonzero"/><path fill="#ffffff" d="M 58.089844 75.804688 C 58.089844 75.804688 58.109375 79.089844 57.542969 80.226562 C 56.976562 81.371094 64.207031 94.082031 64.207031 94.082031 L 48.832031 78.503906 L 58.089844 75.804688 " fill-opacity="1" fill-rule="nonzero"/><path fill="#ffffff" d="M 70.511719 75.804688 C 70.511719 75.804688 70.496094 79.089844 71.058594 80.226562 C 71.621094 81.371094 64.390625 94.082031 64.390625 94.082031 L 79.765625 78.503906 L 70.511719 75.804688 " fill-opacity="1" fill-rule="nonzero"/><path fill="#e66f64" d="M 94.007812 170.730469 C 99.242188 155.921875 99.9375 141.664062 100.003906 136.589844 C 102.765625 138.96875 106.566406 140.207031 110.75 140.347656 C 112.558594 140.414062 114.324219 140.308594 116.046875 140.03125 C 114.652344 149.96875 105.578125 170.519531 99.894531 174.105469 C 93.449219 178.167969 94.007812 170.730469 94.007812 170.730469 " fill-opacity="1" fill-rule="nonzero"/><path fill="#e66f64" d="M 94.140625 174.847656 C 94.140625 174.847656 96.574219 176.433594 92.910156 180.816406 C 89.246094 185.195312 88.183594 183.75 91.050781 171.957031 L 94.140625 174.847656 " fill-opacity="1" fill-rule="nonzero"/><path fill="#e66f64" d="M 92.382812 169.652344 C 92.382812 169.652344 90.777344 170.1875 90.285156 175.089844 C 89.796875 179.988281 91.015625 182.800781 92.003906 185.582031 C 92.746094 187.675781 93.246094 186.089844 93.359375 186.03125 C 93.425781 186 93.246094 186.3125 93.816406 186.375 C 94.179688 186.414062 95.050781 186.09375 95.441406 185.773438 C 95.6875 185.566406 96.527344 184.839844 96.90625 184.527344 C 98.683594 183.03125 102.058594 180.277344 102.6875 170.796875 C 102.6875 170.796875 97.109375 165.042969 92.382812 169.652344 " fill-opacity="1" fill-rule="nonzero"/><path fill="#bdbcbc" d="M 117.796875 134.261719 C 117.796875 134.261719 120.554688 136.851562 120.117188 138.753906 C 119.675781 140.664062 119.644531 145.078125 107.285156 145.589844 C 94.917969 146.101562 94.820312 136.734375 102.226562 132.894531 C 109.640625 129.058594 117.796875 134.261719 117.796875 134.261719 " fill-opacity="1" fill-rule="nonzero"/><path fill="#e66f64" d="M 214 126.734375 C 214 126.734375 207.867188 127.335938 203.976562 124.160156 C 203.976562 124.160156 203.476562 124.070312 203.269531 124.816406 C 203.0625 125.558594 204.433594 128.777344 205.898438 129.699219 C 207.371094 130.625 210.488281 129.964844 210.488281 129.964844 L 214 126.734375 " fill-opacity="1" fill-rule="nonzero"/><path fill="#e66f64" d="M 216.328125 103.476562 C 216.328125 103.476562 222.039062 114.660156 211.441406 127.4375 C 211.441406 127.4375 206.007812 136.234375 213.21875 135.558594 C 220.4375 134.875 229.921875 123.300781 231.203125 110.75 C 231.933594 103.625 227.03125 82.890625 216.328125 103.476562 " fill-opacity="1" fill-rule="nonzero"/><path fill="#f7981a" d="M 197.40625 58.398438 C 197.40625 58.398438 208.015625 60.578125 230.472656 99.285156 C 230.472656 99.285156 231.867188 102.570312 220.292969 104.351562 C 213.253906 105.433594 214.625 101.730469 197.40625 82.550781 C 197.40625 82.550781 192.207031 56.832031 197.40625 58.398438 " fill-opacity="1" fill-rule="nonzero"/><path fill="#f7981a" d="M 214 101.558594 C 214 101.558594 213.859375 105.84375 216.304688 106.910156 C 218.753906 107.980469 232.984375 106.304688 233.578125 104.917969 C 234.171875 103.535156 233.972656 92.960938 229.03125 92.464844 C 224.089844 91.972656 214 101.558594 214 101.558594 " fill-opacity="1" fill-rule="nonzero"/><path fill="#e66f64" d="M 202.628906 132.570312 C 201.21875 135.25 202.597656 138.027344 204.679688 140.035156 C 207.128906 140.125 211.535156 142.085938 217.160156 133.914062 C 217.160156 133.914062 217.570312 128.484375 210.910156 127.324219 C 210.910156 127.324219 212.210938 125.589844 207.855469 128.121094 C 206.609375 128.839844 204.996094 129.453125 203.339844 129.996094 C 203.28125 130.875 203.0625 131.75 202.628906 132.570312 " fill-opacity="1" fill-rule="nonzero"/><path fill="#bdbcbc" d="M 262.707031 89.988281 C 262.707031 89.988281 221.703125 117.855469 156.15625 140.792969 C 156.15625 140.792969 152.722656 149.429688 161.035156 152.183594 C 169.34375 154.9375 226.339844 112.613281 269.144531 100.394531 C 269.144531 100.394531 275.792969 92.511719 262.707031 89.988281 " fill-opacity="1" fill-rule="nonzero"/><path fill="#bdbcbc" d="M 269.144531 100.394531 C 269.144531 100.394531 257.75 93.816406 262.707031 89.988281 C 263.4375 89.429688 270.003906 90.679688 270.894531 94.910156 C 272.113281 100.679688 269.144531 100.394531 269.144531 100.394531 " fill-opacity="1" fill-rule="nonzero"/><path fill="#e0e0e0" d="M 254.140625 100.625 C 254.140625 100.625 208.425781 119.816406 139.640625 129.324219 C 139.640625 129.324219 134.566406 137.101562 142.164062 141.449219 C 149.765625 145.792969 214.007812 115.597656 258.394531 112.101562 C 258.394531 112.101562 266.464844 105.695312 254.140625 100.625 " fill-opacity="1" fill-rule="nonzero"/><path fill="#bdbcbc" d="M 258.394531 112.101562 C 258.394531 112.101562 248.523438 103.398438 254.140625 100.625 C 254.964844 100.222656 261.152344 102.746094 261.191406 107.070312 C 261.238281 112.960938 258.394531 112.101562 258.394531 112.101562 " fill-opacity="1" fill-rule="nonzero"/><path fill="#26285d" d="M 180.703125 274.132812 C 180.703125 274.132812 179.082031 274.945312 179.058594 275.484375 C 179.046875 276.019531 178.214844 283.191406 178.628906 284.449219 C 179.046875 285.707031 201.023438 288.128906 201.023438 288.128906 C 201.023438 288.128906 212.140625 287.589844 213.296875 286.152344 C 214.460938 284.71875 213.960938 283.644531 213.296875 283.460938 C 212.636719 283.28125 187.003906 273.503906 187.003906 273.503906 L 180.703125 274.132812 " fill-opacity="1" fill-rule="nonzero"/><path fill="#26285d" d="M 142.664062 273.835938 C 142.664062 273.835938 140.535156 279.390625 140.574219 279.914062 C 140.609375 280.441406 141.097656 288.867188 141.628906 290.042969 C 142.164062 291.21875 156.546875 302.210938 156.546875 302.210938 C 156.546875 302.210938 167.175781 304.457031 168.738281 303.550781 C 175.605469 299.582031 167.445312 292.53125 166.78125 292.421875 C 166.113281 292.320312 153.652344 278.46875 153.652344 278.46875 L 142.664062 273.835938 " fill-opacity="1" fill-rule="nonzero"/><path fill="#26285d" d="M 185.148438 210.964844 C 185.148438 210.964844 179.089844 221.273438 178.511719 223.355469 C 177.933594 225.433594 178.996094 260.554688 178.996094 275.207031 C 178.996094 275.207031 194.011719 277.699219 191.820312 275.339844 C 190.109375 273.503906 200.566406 218.082031 200.566406 218.082031 L 185.148438 210.964844 " fill-opacity="1" fill-rule="nonzero"/><path fill="#26285d" d="M 203.132812 128.378906 C 203.132812 128.378906 203.355469 191.03125 200.566406 218.082031 C 200.566406 218.082031 183.261719 224.792969 181.789062 218.570312 C 180.316406 212.347656 177.085938 134.40625 177.085938 134.40625 L 203.132812 128.378906 " fill-opacity="1" fill-rule="nonzero"/><path fill="#2e3192" d="M 180.503906 130.789062 C 180.699219 133.71875 202.976562 129.578125 202.125 132.453125 C 190.109375 173.015625 179.144531 206.238281 176.058594 210.964844 C 160.933594 254.953125 157.148438 269.074219 155.167969 279.882812 C 154.816406 281.816406 143.601562 286.097656 140.570312 280.820312 C 140.570312 280.820312 146.070312 230.535156 153.5625 215.714844 C 157.261719 208.386719 159.789062 135.335938 159.789062 135.335938 C 165.246094 131.710938 173.09375 130.710938 180.503906 130.789062 " fill-opacity="1" fill-rule="nonzero"/><path fill="#fab43d" d="M 177.558594 58.234375 C 177.558594 58.234375 157.773438 62.617188 149.363281 74.066406 C 149.363281 74.066406 167.59375 107.785156 159.789062 135.335938 C 159.789062 135.335938 186.855469 147.742188 202.953125 132.261719 C 202.953125 132.261719 216.226562 83.523438 202.152344 61.132812 C 202.152344 61.132812 194.558594 53.691406 177.558594 58.234375 " fill-opacity="1" fill-rule="nonzero"/><path fill="#fab43d" d="M 181.421875 53.753906 L 184.226562 53.753906 L 191.820312 59.15625 L 184.59375 65.054688 L 181.457031 61.132812 L 181.421875 53.753906 " fill-opacity="1" fill-rule="nonzero"/><path fill="#e66f64" d="M 167.59375 42.332031 C 167.59375 42.332031 170.714844 54.449219 171.148438 61.40625 C 171.148438 61.40625 176.644531 66.316406 181.386719 61.765625 C 181.386719 61.765625 183.222656 43.5625 187.097656 40.773438 C 190.96875 37.988281 167.59375 42.332031 167.59375 42.332031 " fill-opacity="1" fill-rule="nonzero"/><path fill="#f68c82" d="M 153.5625 137.601562 C 153.5625 137.601562 159.355469 133.246094 160.1875 127.386719 C 160.1875 127.386719 160.554688 126.910156 161.324219 127.386719 C 162.101562 127.863281 163.476562 131.75 162.941406 133.71875 C 162.40625 135.691406 159.175781 137.601562 159.175781 137.601562 L 153.5625 137.601562 " fill-opacity="1" fill-rule="nonzero"/><path fill="#f68c82" d="M 140.351562 112.132812 C 140.351562 112.132812 144.550781 122.628906 156.242188 135.523438 C 156.242188 135.523438 160.324219 144.332031 152.734375 143.957031 C 145.144531 143.574219 127.460938 126.480469 124.679688 119.507812 C 121.902344 112.53125 125.394531 97.765625 140.351562 112.132812 " fill-opacity="1" fill-rule="nonzero"/><path fill="#fab43d" d="M 165.519531 62.335938 C 165.519531 62.335938 147.125 65.949219 125.394531 107.542969 C 125.394531 107.542969 127.425781 111.941406 139.632812 113.269531 C 147.0625 114.082031 145.816406 99.679688 167.722656 88.269531 C 167.722656 88.269531 170.894531 60.449219 165.519531 62.335938 " fill-opacity="1" fill-rule="nonzero"/><path fill="#f68c82" d="M 157.835938 135.09375 C 157.835938 135.09375 156.21875 133.121094 161.476562 135.871094 C 166.730469 138.625 177.089844 139.457031 177.085938 141.6875 C 177.085938 143.941406 176.371094 144.074219 174.855469 144.867188 C 174.773438 144.917969 173.820312 145.925781 173.507812 146.546875 C 173.3125 146.929688 171.773438 147.878906 171.191406 148.0625 C 170.828125 148.175781 169.796875 148.847656 169.230469 149.011719 C 166.542969 149.820312 162.695312 149.605469 152.734375 143.957031 C 152.734375 143.957031 150.070312 136.804688 157.835938 135.09375 " fill-opacity="1" fill-rule="nonzero"/><path fill="#f68c82" d="M 171.492188 21.65625 C 171.492188 21.65625 184.273438 15.800781 192.636719 23.941406 C 192.636719 23.941406 196.738281 34.410156 195.84375 42.277344 C 194.957031 50.144531 190.214844 59 184.394531 59.402344 C 184.394531 59.402344 170.839844 57.472656 168.59375 46.226562 C 166.570312 36.101562 167.628906 24.253906 171.492188 21.65625 " fill-opacity="1" fill-rule="nonzero"/><path fill="#2e3192" d="M 192.203125 34.898438 C 192.203125 34.898438 192.441406 42.207031 179.210938 43.792969 C 179.210938 43.792969 177.554688 45.832031 183.425781 45.113281 C 189.300781 44.386719 199.613281 39.3125 197.621094 34.402344 C 195.628906 29.492188 192.203125 34.898438 192.203125 34.898438 " fill-opacity="1" fill-rule="nonzero"/><path fill="#2e3192" d="M 169.835938 33.808594 C 169.835938 36.824219 172.871094 41.566406 179.175781 42 C 187.988281 42.601562 194.339844 37.042969 194.339844 34.023438 C 194.339844 31.003906 181.03125 31.304688 176.632812 31.304688 C 172.226562 31.304688 169.835938 30.789062 169.835938 33.808594 " fill-opacity="1" fill-rule="nonzero"/><path fill="#f68c82" d="M 171.011719 41.800781 C 171.953125 45.132812 171.183594 48.273438 169.292969 48.804688 C 167.402344 49.339844 165.101562 47.074219 164.164062 43.738281 C 163.21875 40.40625 163.988281 37.269531 165.882812 36.738281 C 167.773438 36.199219 170.066406 38.46875 171.011719 41.800781 " fill-opacity="1" fill-rule="nonzero"/><path fill="#2e3192" d="M 167.527344 32.527344 C 172.472656 27.617188 178.585938 23.757812 185.808594 23.511719 C 186.847656 23.476562 188.976562 23.304688 191.101562 23.410156 C 192.125 24.65625 193.125 26.027344 194.339844 27.515625 C 193.394531 27.390625 192.425781 27.144531 191.480469 26.769531 C 191.480469 26.769531 187.421875 27.816406 185.769531 25.28125 C 185.769531 25.28125 183.164062 28.992188 177.355469 27.195312 C 177.355469 27.195312 177.9375 34.046875 172.539062 35.035156 C 172.539062 35.035156 171.867188 38.316406 173.089844 40.492188 C 174.3125 42.667969 173.265625 44.609375 172.480469 45.222656 C 171.695312 45.835938 171.695312 43.714844 171.695312 43.714844 C 171.695312 43.714844 170.273438 39.417969 168.390625 39.066406 C 166.5 38.71875 166.238281 39.765625 165.601562 40.085938 C 164.960938 40.40625 163.683594 40.984375 162.929688 38.949219 C 162.414062 37.582031 162.769531 36.023438 162.929688 34.894531 C 164.503906 34.683594 166.085938 33.949219 167.527344 32.527344 " fill-opacity="1" fill-rule="nonzero"/><path fill="#fab43d" d="M 193.3125 39.675781 C 193.3125 39.675781 173.808594 41.675781 162.664062 35.609375 C 162.664062 35.609375 160.261719 15.816406 181.125 17.195312 C 181.125 17.195312 197.65625 18.371094 197.535156 34.3125 C 197.535156 34.3125 205.773438 36.046875 206.191406 37.367188 C 206.609375 38.6875 200.109375 39.820312 193.3125 39.675781 " fill-opacity="1" fill-rule="nonzero"/><path fill="#f7981a" d="M 195.777344 34.738281 C 195.777344 34.738281 192.921875 36.832031 184.277344 37.625 C 184.277344 37.625 182.769531 17.59375 171.351562 18.40625 C 171.351562 18.40625 172.9375 16.785156 175.128906 16.523438 C 176.378906 16.371094 183.722656 15.359375 187.230469 17.988281 C 190.746094 20.621094 194.339844 26.722656 195.777344 34.738281 " fill-opacity="1" fill-rule="nonzero"/><path fill="#ffffff" d="M 177.078125 63.242188 C 177.0625 63.6875 181.386719 61.765625 181.386719 61.765625 L 185.148438 65.742188 L 183.503906 70.355469 L 181.421875 70.355469 L 177.621094 68.152344 L 177.078125 63.242188 " fill-opacity="1" fill-rule="nonzero"/><path fill="#ffffff" d="M 183.882812 68.554688 C 183.882812 68.554688 197.40625 88.808594 197.40625 125.375 L 195.824219 132.390625 L 189.570312 127.175781 C 189.570312 127.175781 184.859375 83.105469 180.621094 68.554688 L 183.882812 68.554688 " fill-opacity="1" fill-rule="nonzero"/><path fill="#fab43d" d="M 121.566406 102.910156 C 121.890625 102.492188 144.367188 109.894531 145.945312 112.53125 C 147.527344 115.160156 144.101562 116.875 144.101562 116.875 C 144.101562 116.875 122.625 121.359375 121.566406 119.378906 C 120.511719 117.402344 116.828125 108.96875 121.566406 102.910156 " fill-opacity="1" fill-rule="nonzero"/><path fill="#fab43d" d="M 178.996094 60.738281 L 179.414062 58.332031 L 166.375 55.53125 L 164.988281 62.515625 L 177.558594 69.566406 L 178.996094 60.738281 " fill-opacity="1" fill-rule="nonzero"/><path fill="#26285d" d="M 363.496094 330.691406 C 363.496094 330.691406 367.109375 334.3125 369.257812 341.308594 C 374.871094 359.613281 358.585938 351.316406 353.160156 344.371094 C 350.945312 341.535156 349.097656 324.070312 353.792969 322.792969 C 355.628906 322.296875 363.496094 330.691406 363.496094 330.691406 " fill-opacity="1" fill-rule="nonzero"/><path fill="#e66f64" d="M 288.011719 170.859375 C 288.011719 170.859375 294.476562 171.5 298.582031 168.152344 C 298.582031 168.152344 299.109375 168.050781 299.332031 168.839844 C 299.554688 169.625 298.097656 173.019531 296.550781 173.992188 C 295 174.964844 291.714844 174.269531 291.714844 174.269531 L 288.011719 170.859375 " fill-opacity="1" fill-rule="nonzero"/><path fill="#e66f64" d="M 285.550781 146.324219 C 285.550781 146.324219 279.523438 158.125 290.707031 171.609375 C 290.707031 171.609375 296.445312 180.890625 288.828125 180.171875 C 281.21875 179.457031 271.210938 167.238281 269.847656 153.996094 C 269.085938 146.480469 274.257812 124.605469 285.550781 146.324219 " fill-opacity="1" fill-rule="nonzero"/><path fill="#26285d" d="M 305.515625 98.757812 C 305.515625 98.757812 294.320312 101.066406 270.628906 141.902344 C 270.628906 141.902344 269.15625 145.367188 281.359375 147.246094 C 288.796875 148.390625 287.351562 144.476562 305.515625 124.242188 C 305.515625 124.242188 311 97.105469 305.515625 98.757812 " fill-opacity="1" fill-rule="nonzero"/><path fill="#26285d" d="M 288.011719 144.300781 C 288.011719 144.300781 288.152344 148.820312 285.570312 149.949219 C 282.992188 151.074219 267.976562 149.304688 267.351562 147.847656 C 266.722656 146.382812 266.933594 135.226562 272.148438 134.707031 C 277.359375 134.1875 288.011719 144.300781 288.011719 144.300781 " fill-opacity="1" fill-rule="nonzero"/><path fill="#e66f64" d="M 300 177.023438 C 301.492188 179.855469 300.035156 182.777344 297.839844 184.898438 C 295.257812 184.992188 290.601562 187.0625 284.671875 178.4375 C 284.671875 178.4375 284.238281 172.710938 291.265625 171.488281 C 291.265625 171.488281 289.894531 169.65625 294.492188 172.328125 C 295.808594 173.09375 297.507812 173.730469 299.253906 174.304688 C 299.316406 175.234375 299.546875 176.15625 300 177.023438 " fill-opacity="1" fill-rule="nonzero"/><path fill="#bdbcbc" d="M 257.007812 157.160156 L 303.410156 149.476562 L 308.960938 178.59375 L 264.796875 188.242188 L 257.007812 157.160156 " fill-opacity="1" fill-rule="nonzero"/><path fill="#bdbcbc" d="M 258.117188 151.027344 L 304.523438 143.347656 L 310.070312 172.464844 L 265.90625 182.109375 L 258.117188 151.027344 " fill-opacity="1" fill-rule="nonzero"/><path fill="#26285d" d="M 323.140625 326.390625 C 323.140625 326.390625 324.847656 327.242188 324.875 327.816406 C 324.890625 328.382812 325.765625 335.949219 325.332031 337.277344 C 324.890625 338.601562 301.695312 341.15625 301.695312 341.15625 C 301.695312 341.15625 289.972656 340.589844 288.746094 339.074219 C 287.519531 337.5625 288.042969 336.421875 288.746094 336.234375 C 289.445312 336.042969 316.488281 325.726562 316.488281 325.726562 L 323.140625 326.390625 " fill-opacity="1" fill-rule="nonzero"/><path fill="#26285d" d="M 318.445312 259.742188 C 318.445312 259.742188 324.839844 270.617188 325.449219 272.8125 C 326.0625 275.011719 324.941406 312.0625 324.941406 327.523438 C 324.941406 327.523438 309.09375 330.15625 311.410156 327.664062 C 313.210938 325.726562 302.179688 267.25 302.179688 267.25 L 318.445312 259.742188 " fill-opacity="1" fill-rule="nonzero"/><path fill="#26285d" d="M 299.476562 172.601562 C 299.476562 172.601562 299.238281 238.707031 302.179688 267.25 C 302.179688 267.25 320.441406 274.328125 321.996094 267.761719 C 323.546875 261.203125 326.953125 178.960938 326.953125 178.960938 L 299.476562 172.601562 " fill-opacity="1" fill-rule="nonzero"/><path fill="#2e3192" d="M 323.351562 175.140625 C 323.140625 178.230469 299.636719 173.863281 300.535156 176.902344 C 313.210938 219.695312 324.785156 254.75 328.039062 259.742188 C 344 306.15625 347.996094 321.054688 350.082031 332.457031 C 350.457031 334.496094 362.285156 339.011719 365.484375 333.445312 C 365.484375 333.445312 359.683594 280.386719 351.78125 264.742188 C 347.875 257.015625 345.207031 179.9375 345.207031 179.9375 C 339.449219 176.121094 331.167969 175.058594 323.351562 175.140625 " fill-opacity="1" fill-rule="nonzero"/><path fill="#2e3192" d="M 326.457031 98.589844 C 326.457031 98.589844 347.332031 103.210938 356.207031 115.292969 C 356.207031 115.292969 349.191406 150.304688 345.207031 179.9375 C 345.207031 179.9375 316.648438 193.03125 299.664062 176.695312 C 299.664062 176.695312 285.65625 125.273438 300.511719 101.648438 C 300.511719 101.648438 308.519531 93.792969 326.457031 98.589844 " fill-opacity="1" fill-rule="nonzero"/><path fill="#fab43d" d="M 317.636719 97.109375 C 305.878906 96.402344 300.511719 101.648438 300.511719 101.648438 C 285.65625 125.273438 291.058594 180.210938 291.058594 180.210938 C 292.144531 181.257812 301.058594 187.425781 302.230469 188.242188 C 299.859375 136.8125 308.644531 106.054688 317.636719 97.109375 " fill-opacity="1" fill-rule="nonzero"/><path fill="#fab43d" d="M 354.855469 123.632812 C 347.273438 122.828125 345.523438 113.582031 349.609375 108.882812 C 343.710938 104.96875 337.054688 101.890625 332.910156 100.476562 C 323.820312 103.6875 310.257812 124.765625 317.636719 190.644531 C 331.65625 192.160156 351.476562 184.90625 351.476562 184.90625 C 351.34375 166.417969 350.28125 143.480469 356.636719 124.917969 C 356 124.539062 355.421875 124.097656 354.855469 123.632812 " fill-opacity="1" fill-rule="nonzero"/><path fill="#fab43d" d="M 305.492188 127.710938 C 308.519531 111.933594 313.046875 101.671875 317.636719 97.109375 C 305.878906 96.402344 300.511719 101.648438 300.511719 101.648438 C 296.976562 107.269531 294.601562 114.675781 293.015625 122.679688 C 296.769531 125.09375 301.207031 126.566406 305.492188 127.710938 " fill-opacity="1" fill-rule="nonzero"/><path fill="#ffffff" d="M 290.132812 154.046875 C 290.082031 157.707031 290.109375 161.183594 290.1875 164.3125 C 293.46875 166.527344 297.507812 168.164062 301.847656 169.347656 C 301.878906 165.390625 301.988281 161.601562 302.148438 157.945312 C 298.011719 157.003906 293.980469 155.738281 290.132812 154.046875 " fill-opacity="1" fill-rule="nonzero"/><path fill="#ffffff" d="M 302.539062 151.207031 C 302.953125 145.335938 303.542969 139.910156 304.273438 134.9375 C 299.859375 133.667969 295.621094 132.003906 291.820312 129.820312 C 291.039062 135.457031 290.589844 141.203125 290.34375 146.71875 C 294.203125 148.703125 298.296875 150.15625 302.539062 151.207031 " fill-opacity="1" fill-rule="nonzero"/><path fill="#fab43d" d="M 332.3125 132.101562 C 339.59375 131.785156 347.644531 131.265625 355.242188 129.507812 C 355.660156 127.957031 356.117188 126.421875 356.636719 124.917969 C 356 124.539062 355.421875 124.097656 354.855469 123.632812 C 347.273438 122.828125 345.523438 113.582031 349.609375 108.882812 C 343.710938 104.96875 337.054688 101.890625 332.910156 100.476562 C 327.527344 102.378906 320.585938 110.566406 317.339844 130.597656 C 322.285156 131.632812 327.289062 132.324219 332.3125 132.101562 " fill-opacity="1" fill-rule="nonzero"/><path fill="#ffffff" d="M 326.921875 153.640625 C 335.332031 153.558594 343.605469 152.605469 351.863281 151.175781 C 352.203125 146.382812 352.722656 141.621094 353.566406 136.996094 C 345.308594 138.757812 336.75 139.277344 329.230469 138.816406 C 325.28125 138.578125 320.914062 138.1875 316.429688 137.527344 C 315.945312 142.21875 315.632812 147.449219 315.554688 153.253906 C 319.34375 153.5625 323.152344 153.675781 326.921875 153.640625 " fill-opacity="1" fill-rule="nonzero"/><path fill="#ffffff" d="M 348.183594 158.597656 C 338.703125 159.976562 329.203125 160.761719 319.617188 160.246094 C 318.265625 160.175781 316.917969 160.074219 315.570312 159.960938 C 315.628906 163.6875 315.761719 167.59375 316.007812 171.757812 C 320.539062 172.152344 324.839844 172.230469 328.34375 172.125 C 334.886719 171.917969 343.476562 171.640625 351.332031 170.03125 C 351.324219 166.125 351.355469 162.136719 351.5 158.132812 C 350.382812 158.285156 349.265625 158.4375 348.183594 158.597656 " fill-opacity="1" fill-rule="nonzero"/><path fill="#26285d" d="M 319.417969 93.859375 L 307.027344 101.0625 L 316.65625 104.851562 C 316.421875 108.15625 315.941406 115.65625 315.941406 115.65625 L 318.832031 105.710938 L 319.027344 105.785156 L 322.347656 101.648438 L 322.382812 93.859375 L 319.417969 93.859375 " fill-opacity="1" fill-rule="nonzero"/><path fill="#e66f64" d="M 336.976562 81.8125 C 336.976562 81.8125 333.683594 94.597656 333.21875 101.929688 C 333.21875 101.929688 324.039062 110.585938 319.027344 105.785156 C 319.027344 105.785156 320.476562 83.113281 316.394531 80.164062 C 312.304688 77.222656 336.976562 81.8125 336.976562 81.8125 " fill-opacity="1" fill-rule="nonzero"/><path fill="#e66f64" d="M 320.121094 104.421875 L 319.027344 105.785156 L 315.941406 116.078125 L 323.191406 108.257812 L 328.9375 105.125 L 320.121094 104.421875 " fill-opacity="1" fill-rule="nonzero"/><path fill="#f68c82" d="M 332.863281 59.992188 C 332.863281 59.992188 319.371094 53.816406 310.542969 62.40625 C 310.542969 62.40625 306.21875 73.453125 307.164062 81.753906 C 308.101562 90.050781 313.105469 99.394531 319.242188 99.824219 C 319.242188 99.824219 333.542969 97.78125 335.917969 85.914062 C 338.050781 75.230469 336.9375 62.734375 332.863281 59.992188 " fill-opacity="1" fill-rule="nonzero"/><path fill="#2e3192" d="M 311.003906 73.964844 C 311.003906 73.964844 310.757812 81.679688 324.714844 83.347656 C 324.714844 83.347656 326.460938 85.503906 320.261719 84.742188 C 314.0625 83.976562 303.183594 78.628906 305.289062 73.445312 C 307.390625 68.265625 311.003906 73.964844 311.003906 73.964844 " fill-opacity="1" fill-rule="nonzero"/><path fill="#2e3192" d="M 334.605469 72.8125 C 334.605469 76 331.40625 81 324.75 81.457031 C 315.445312 82.09375 308.753906 76.230469 308.753906 73.042969 C 308.753906 69.859375 322.792969 70.171875 327.441406 70.171875 C 332.085938 70.171875 334.605469 69.628906 334.605469 72.8125 " fill-opacity="1" fill-rule="nonzero"/><path fill="#f68c82" d="M 333.367188 81.25 C 332.371094 84.769531 333.183594 88.078125 335.175781 88.644531 C 337.175781 89.207031 339.601562 86.8125 340.597656 83.292969 C 341.585938 79.777344 340.773438 76.46875 338.777344 75.90625 C 336.785156 75.339844 334.359375 77.734375 333.367188 81.25 " fill-opacity="1" fill-rule="nonzero"/><path fill="#2e3192" d="M 337.042969 71.460938 C 331.828125 66.28125 325.371094 62.210938 317.757812 61.949219 C 316.660156 61.910156 314.410156 61.730469 312.171875 61.847656 C 311.089844 63.15625 310.03125 64.605469 308.753906 66.175781 C 309.746094 66.042969 310.761719 65.789062 311.761719 65.390625 C 311.761719 65.390625 316.054688 66.492188 317.785156 63.820312 C 317.785156 63.820312 320.546875 67.738281 326.671875 65.839844 C 326.671875 65.839844 326.058594 73.070312 331.753906 74.109375 C 331.753906 74.109375 332.457031 77.574219 331.167969 79.867188 C 329.882812 82.167969 330.984375 84.214844 331.8125 84.855469 C 332.648438 85.503906 332.644531 83.269531 332.644531 83.269531 C 332.644531 83.269531 334.144531 78.734375 336.132812 78.367188 C 338.125 77.996094 338.398438 79.097656 339.074219 79.4375 C 339.75 79.777344 341.097656 80.386719 341.898438 78.242188 C 342.429688 76.796875 342.066406 75.148438 341.894531 73.957031 C 340.234375 73.738281 338.5625 72.964844 337.042969 71.460938 " fill-opacity="1" fill-rule="nonzero"/><path fill="#e0e0e0" d="M 309.835938 79.003906 C 309.835938 79.003906 330.410156 81.117188 342.175781 74.714844 C 342.175781 74.714844 344.707031 53.835938 322.691406 55.289062 C 322.691406 55.289062 305.25 56.523438 305.375 73.347656 C 305.375 73.347656 296.683594 75.179688 296.246094 76.570312 C 295.808594 77.964844 302.664062 79.15625 309.835938 79.003906 " fill-opacity="1" fill-rule="nonzero"/><path fill="#bdbcbc" d="M 307.234375 73.792969 C 307.234375 73.792969 310.253906 76.011719 319.367188 76.84375 C 319.367188 76.84375 320.957031 55.710938 333.007812 56.5625 C 333.007812 56.5625 331.332031 54.855469 329.023438 54.578125 C 327.699219 54.417969 319.960938 53.355469 316.25 56.125 C 312.542969 58.898438 308.753906 65.339844 307.234375 73.792969 " fill-opacity="1" fill-rule="nonzero"/><path fill="#26285d" d="M 323.816406 105.378906 L 322.4375 104.613281 L 315.613281 116.078125 L 325.464844 108.191406 L 323.816406 105.378906 " fill-opacity="1" fill-rule="nonzero"/><path fill="#26285d" d="M 322.882812 107.160156 L 322.4375 104.613281 L 335.078125 94.28125 L 338.625 102.519531 L 324.398438 116.476562 L 322.882812 107.160156 " fill-opacity="1" fill-rule="nonzero"/><path fill="#2e3192" d="M 349.054688 109.476562 C 349.054688 109.476562 356.5625 114.167969 358.648438 118.199219 C 360.738281 122.230469 361.148438 130.042969 351.558594 132.324219 C 341.964844 134.609375 309.378906 139.472656 305.023438 138.5 C 300.664062 137.527344 295.539062 128.902344 299.355469 126.125 C 303.167969 123.34375 332.503906 111.042969 349.054688 109.476562 " fill-opacity="1" fill-rule="nonzero"/><path fill="#2e3192" d="M 289.261719 127.375 C 289.261719 127.375 294.65625 121.128906 300.609375 121.816406 C 306.5625 122.5 315.332031 137.460938 313.210938 140.96875 C 311.09375 144.476562 303.171875 145.25 299.972656 140.96875 C 296.773438 136.691406 289.261719 127.375 289.261719 127.375 " fill-opacity="1" fill-rule="nonzero"/><path fill="#f68c82" d="M 298.015625 125.152344 C 298.015625 125.152344 308.78125 137.121094 305.5625 138.574219 C 302.347656 140.027344 274.390625 143.898438 242.339844 142.5 C 242.339844 142.5 236.339844 137.882812 241.644531 135.996094 C 246.949219 134.113281 286.5 124.042969 298.015625 125.152344 " fill-opacity="1" fill-rule="nonzero"/><path fill="#f68c82" d="M 230.761719 137.484375 C 231.394531 137.242188 248.195312 133.566406 252.464844 135.027344 C 256.746094 136.488281 249.109375 148.636719 238.355469 148.851562 C 232.171875 148.976562 225.082031 139.679688 230.761719 137.484375 " fill-opacity="1" fill-rule="nonzero"/><path fill="#f68c82" d="M 217.398438 139.894531 C 217.398438 139.894531 236.199219 136.363281 239.871094 135.714844 C 243.542969 135.070312 239.871094 137.804688 239.871094 137.804688 L 234.5 141.027344 C 234.5 141.027344 214.898438 146.929688 217.398438 139.894531 " fill-opacity="1" fill-rule="nonzero"/><path fill="#ffffff" d="M 312.101562 119.597656 C 312.101562 119.914062 311.875 120.167969 311.59375 120.167969 C 311.316406 120.167969 311.09375 119.914062 311.09375 119.597656 C 311.09375 119.285156 311.316406 119.035156 311.59375 119.035156 C 311.875 119.035156 312.101562 119.285156 312.101562 119.597656 " fill-opacity="1" fill-rule="nonzero"/><path fill="#ffffff" d="M 308.960938 143.898438 C 308.960938 144.207031 308.734375 144.464844 308.457031 144.464844 C 308.175781 144.464844 307.957031 144.207031 307.957031 143.898438 C 307.957031 143.585938 308.175781 143.332031 308.457031 143.332031 C 308.734375 143.332031 308.960938 143.585938 308.960938 143.898438 " fill-opacity="1" fill-rule="nonzero"/><path fill="#ffffff" d="M 307.957031 154.769531 C 307.957031 155.078125 307.730469 155.332031 307.449219 155.332031 C 307.175781 155.332031 306.949219 155.078125 306.949219 154.769531 C 306.949219 154.457031 307.175781 154.203125 307.449219 154.203125 C 307.730469 154.203125 307.957031 154.457031 307.957031 154.769531 " fill-opacity="1" fill-rule="nonzero"/><path fill="#ffffff" d="M 307.957031 166.242188 C 307.957031 166.550781 307.730469 166.804688 307.449219 166.804688 C 307.175781 166.804688 306.949219 166.550781 306.949219 166.242188 C 306.949219 165.925781 307.175781 165.671875 307.449219 165.671875 C 307.730469 165.671875 307.957031 165.925781 307.957031 166.242188 " fill-opacity="1" fill-rule="nonzero"/><path fill="#ffffff" d="M 307.449219 178.59375 C 307.449219 178.90625 307.222656 179.160156 306.949219 179.160156 C 306.667969 179.160156 306.445312 178.90625 306.445312 178.59375 C 306.445312 178.285156 306.667969 178.03125 306.949219 178.03125 C 307.222656 178.03125 307.449219 178.285156 307.449219 178.59375 " fill-opacity="1" fill-rule="nonzero"/></svg>