<svg xmlns="http://www.w3.org/2000/svg" xmlns:xlink="http://www.w3.org/1999/xlink" width="500" zoomAndPan="magnify" viewBox="0 0 375 374.999991" height="500" preserveAspectRatio="xMidYMid meet" version="1.0"><path fill="#000200" d="M 141.191406 332.445312 L 113.988281 332.390625 L 114.054688 151.359375 C 114.6875 147.453125 124.824219 138.832031 128.050781 135.628906 C 138.675781 125.082031 135.394531 130.957031 136.511719 112.480469 C 133.503906 114.40625 107.042969 140.726562 104.613281 143.859375 C 101.347656 148.0625 103.214844 195.683594 103.214844 205.390625 C 103.214844 247.480469 102.300781 290.589844 103.277344 332.554688 L 75.847656 332.386719 C 76.097656 311.125 75.660156 289.882812 75.835938 268.71875 C 75.894531 261.351562 81.019531 258.53125 89.089844 250.480469 C 98.332031 241.265625 98.871094 244.886719 98.050781 226.804688 L 72.148438 252.203125 C 69.261719 255.179688 65.269531 257.425781 64.992188 262.304688 L 65.222656 332.429688 L 32.339844 332.421875 L 32.269531 342.9375 L 337.230469 343.363281 L 337.320312 332.253906 L 304.910156 332.375 C 302.597656 322.644531 304.921875 277.878906 304.625 264.058594 C 304.464844 256.773438 297.410156 252.164062 289.425781 244.316406 C 285.792969 240.746094 274.625 228.5625 271.535156 226.871094 C 270.253906 245.050781 271.367188 241.414062 287.886719 257.960938 C 290.738281 260.820312 293.5625 261.804688 293.734375 267.78125 C 294.347656 289.0625 293.335938 310.953125 293.734375 332.351562 L 266.300781 332.433594 C 267.257812 288.839844 266.339844 242.171875 266.34375 197.933594 C 266.34375 179.238281 269.601562 186.527344 246.890625 163.785156 C 243.109375 159.996094 237.214844 153.25 233.457031 150.472656 C 231.703125 167.710938 233.308594 165.859375 251.007812 182.972656 C 257.460938 189.210938 255.519531 188.917969 255.519531 203.527344 L 255.542969 332.355469 L 228.332031 332.402344 C 228.394531 308.398438 228.363281 284.394531 228.363281 260.394531 C 228.363281 249.105469 229.136719 234.921875 228.417969 224 C 228.085938 219.023438 223.929688 216.785156 221.070312 213.847656 C 217.910156 210.59375 214.714844 207.824219 211.917969 204.457031 C 233.121094 181.074219 228.445312 200.488281 228.363281 149.453125 C 228.34375 137.644531 228.273438 125.792969 228.390625 113.988281 C 228.488281 103.972656 226.15625 105.234375 213.660156 92.597656 C 201.582031 80.378906 189.976562 68.785156 177.78125 56.703125 C 174.496094 53.453125 144.042969 22.019531 141.015625 20.476562 Z M 152.152344 53.425781 L 152.128906 332.472656 L 217.449219 332.40625 C 216.65625 302.386719 217.316406 258.894531 217.355469 228.699219 C 217.359375 224.359375 206.394531 215.207031 201.84375 210.695312 L 196.425781 204.457031 C 198.667969 200.886719 211.164062 189.140625 214.617188 185.808594 C 218.136719 182.410156 217.335938 182.550781 217.347656 176.492188 L 217.339844 116.824219 C 217.339844 108.832031 212.484375 106.453125 203.226562 97.441406 C 197.664062 92.027344 155.863281 48.894531 152.070312 46.785156 Z M 152.152344 53.425781 " fill-opacity="1" fill-rule="evenodd"/><path fill="#000200" d="M 175.730469 256.304688 C 175.730469 256.304688 175.730469 197.871094 175.730469 182.726562 C 175.730469 155.429688 172.675781 148.996094 173.160156 118.378906 C 179.46875 105.902344 182.703125 122.378906 188.398438 120.136719 C 186.484375 135.148438 180.753906 142.753906 180.753906 178.113281 C 180.753906 213.082031 180.753906 258.011719 180.753906 258.011719 Z M 175.730469 256.304688 " fill-opacity="1" fill-rule="evenodd"/><path fill="#000200" d="M 173.984375 68.28125 L 177.273438 68.28125 L 177.273438 99.929688 L 173.984375 99.929688 Z M 173.984375 68.28125 " fill-opacity="1" fill-rule="evenodd"/><path fill="#000200" d="M 197.351562 81.589844 L 200.640625 81.589844 L 200.640625 106.355469 L 197.351562 106.355469 Z M 197.351562 81.589844 " fill-opacity="1" fill-rule="evenodd"/><path fill="#000200" d="M 168.316406 117.527344 C 169.363281 117.179688 170.359375 116.9375 171.304688 116.78125 C 172.035156 116.664062 172.738281 116.59375 173.417969 116.570312 C 175.394531 101.921875 185.558594 98.441406 190.289062 98.675781 C 189.0625 96.949219 187.160156 95.328125 184.097656 95.328125 C 179.425781 95.328125 167.496094 100.265625 168.316406 117.527344 Z M 168.316406 117.527344 " fill-opacity="1" fill-rule="evenodd"/><path fill="#000200" d="M 192.445312 99.847656 C 194.769531 107.101562 193.4375 116.714844 180.292969 126.328125 L 190.34375 130.332031 C 196.726562 132.875 203.984375 129.960938 206.84375 123.710938 C 209.316406 118.296875 207.761719 111.890625 203.082031 108.210938 Z M 192.445312 99.847656 " fill-opacity="1" fill-rule="evenodd"/><path fill="#000200" d="M 176.117188 253.085938 C 176.03125 263.234375 177.496094 301.179688 174.65625 308.019531 C 173.089844 311.796875 171.773438 310.660156 168.175781 311.519531 C 161.972656 313.003906 164.988281 311.960938 159.898438 312.53125 C 157.734375 312.773438 153.820312 313.21875 153.148438 315.59375 C 154.207031 319.089844 161.726562 318.210938 164.890625 318.976562 C 164.191406 319.351562 164.042969 319.46875 163.773438 320.398438 C 165.648438 324.960938 182.285156 324.414062 185.207031 321.097656 C 186.445312 319.6875 186.941406 320.347656 190.332031 319.492188 C 195.726562 318.128906 205.664062 319.675781 207.082031 315.59375 C 205.679688 311.382812 196.078125 313.15625 190.40625 311.621094 C 188.550781 311.121094 186.761719 310.9375 184.890625 310.714844 C 181.546875 310.320312 181.707031 304.496094 181.429688 299.628906 C 180.574219 284.410156 181.269531 268.390625 180.949219 252.960938 C 178.902344 253.847656 178.234375 253.386719 176.117188 253.085938 Z M 176.117188 253.085938 " fill-opacity="1" fill-rule="evenodd"/><path fill="#000200" d="M 169.300781 305.863281 C 168.941406 304.203125 165.621094 298.492188 163.640625 301.066406 C 162.433594 302.640625 164.097656 303.78125 165.355469 304.296875 C 166.121094 304.613281 168.75 305.78125 169.300781 305.863281 Z M 169.300781 305.863281 " fill-opacity="1" fill-rule="evenodd"/><path fill="#000200" d="M 189.09375 305.246094 C 190.742188 305.304688 190.78125 305.3125 192.011719 306.066406 C 193.296875 306.859375 193.574219 307.191406 194.839844 306.46875 C 195.53125 302.53125 190.683594 303.152344 189.09375 305.246094 Z M 189.09375 305.246094 " fill-opacity="1" fill-rule="evenodd"/><path fill="#000200" d="M 173.347656 308.371094 C 174.984375 299.972656 167.773438 300.464844 171.457031 305.351562 C 171.738281 305.726562 172.117188 306.152344 172.414062 306.699219 Z M 173.347656 308.371094 " fill-opacity="1" fill-rule="evenodd"/><path fill="#000200" d="M 183.65625 307.179688 C 184.328125 306.015625 184.886719 305.171875 186.03125 304.214844 C 186.566406 303.765625 188.867188 302.296875 187.726562 300.847656 C 185.777344 298.371094 183.691406 305.640625 183.65625 307.179688 Z M 183.65625 307.179688 " fill-opacity="1" fill-rule="evenodd"/></svg>