<svg width="32" height="32" viewBox="0 0 32 32" fill="none" xmlns="http://www.w3.org/2000/svg">
  <path d="M26 4H6C4.89543 4 4 4.89543 4 6V26C4 27.1046 4.89543 28 6 28H26C27.1046 28 28 27.1046 28 26V6C28 4.89543 27.1046 4 26 4Z" stroke="#B8860B" stroke-width="2" stroke-linecap="round" stroke-linejoin="round"/>
  <path d="M16 20C18.2091 20 20 18.2091 20 16C20 13.7909 18.2091 12 16 12C13.7909 12 12 13.7909 12 16C12 18.2091 13.7909 20 16 20Z" stroke="#B8860B" stroke-width="2" stroke-linecap="round" stroke-linejoin="round"/>
  <path d="M16 8V9" stroke="#B8860B" stroke-width="2" stroke-linecap="round" stroke-linejoin="round"/>
  <path d="M16 23V24" stroke="#B8860B" stroke-width="2" stroke-linecap="round" stroke-linejoin="round"/>
  <path d="M8 16H9" stroke="#B8860B" stroke-width="2" stroke-linecap="round" stroke-linejoin="round"/>
  <path d="M23 16H24" stroke="#B8860B" stroke-width="2" stroke-linecap="round" stroke-linejoin="round"/>
</svg> 